<svg width="209" height="45" viewBox="0 0 209 45" fill="none" xmlns="http://www.w3.org/2000/svg">
<path d="M38.8041 31.5319H42.8781L44.2528 28.1499H52.3507L53.7254 31.5319H57.9493L50.4762 14.1243H46.4022L38.8041 31.5319ZM45.5524 24.9916L48.3267 18.2276L51.076 24.9916H45.5524Z" fill="#E5D283"/>
<path d="M59.7686 31.5319H71.2157V28.1001H63.7176V14.1243H59.7686V31.5319Z" fill="#E5D283"/>
<path d="M72.3093 22.8033C72.3093 27.8515 76.2584 31.706 81.482 31.706C84.0314 31.706 86.7057 30.4875 88.5552 28.5975L86.2308 26.0858C84.9812 27.3292 83.2566 28.125 81.682 28.125C78.6827 28.125 76.3583 25.7874 76.3583 22.7535C76.3583 19.7196 78.6827 17.4069 81.682 17.4069C83.3066 17.4069 85.0311 18.3022 86.2308 19.6699L88.5303 16.8847C86.8057 15.1191 84.1564 14 81.632 14C76.3333 14 72.3093 17.7799 72.3093 22.8033Z" fill="#E5D283"/>
<path d="M90.913 31.5319H94.8621V24.6684H102.785V31.5319H106.734V14.1243H102.785V21.3858H94.8621V14.1243H90.913V31.5319Z" fill="#E5D283"/>
<path d="M110.586 31.5319H124.182V28.2742H114.535V24.4197H122.983V21.162H114.535V17.382H123.907V14.1243H110.586V31.5319Z" fill="#E5D283"/>
<path d="M127.281 31.5319H131.23V26.5583H135.254L138.028 31.5319H142.502L138.778 25.7874C140.902 24.7927 142.052 22.853 142.052 20.1673C142.052 16.3127 139.453 14.1243 134.879 14.1243H127.281V31.5319ZM131.23 23.2758V17.382H134.879C137.053 17.382 138.303 18.3519 138.303 20.2916C138.303 22.281 137.053 23.2758 134.879 23.2758H131.23Z" fill="#E5D283"/>
<path d="M145.367 31.5319H149.316V14.1243H145.367V31.5319Z" fill="#E5D283"/>
<path d="M153.202 31.5319H156.976V20.3662L165.449 31.5319H169.048V14.1243H165.299V25.3149L156.801 14.1243H153.202V31.5319Z" fill="#E5D283"/>
<path d="M171.65 22.8281C171.65 27.8763 175.673 31.706 180.972 31.706C183.397 31.706 186.221 30.7859 188.07 29.443V22.7535H184.646V27.3292C183.521 27.9012 182.272 28.2742 181.222 28.2742C178.123 28.2742 175.698 25.9118 175.698 22.8281C175.698 19.7694 178.098 17.4069 181.197 17.4069C182.897 17.4069 184.696 18.153 185.996 19.3466L188.22 16.5365C186.446 14.9947 183.796 14 181.197 14C175.748 14 171.65 17.8048 171.65 22.8281Z" fill="#E5D283"/>
<path d="M189.523 31.5319H193.597L194.972 28.1499H203.07L204.444 31.5319H208.668L201.195 14.1243H197.121L189.523 31.5319ZM196.271 24.9916L199.046 18.2276L201.795 24.9916H196.271Z" fill="#E5D283"/>
<g clip-path="url(#clip0_0_88)">
<path d="M16.9 41.8C16.8 41.7 16.9 41.5 16.8 41.4C16.8 41.5 16.7 41.6 16.7 41.7C16.7 41.8 16.7 41.9 16.7 42C16.7 42.2 16.7 42.2 16.5 42.2C16.4 42.2 16.3 42.2 16.3 42.2C16.1 42.2 15.9 42.2 15.7 42.3C15.5 42.3 15.3 42.4 15.2 42.4C15 42.4 14.8 42.4 14.6 42.4C14.3 42.4 14.1 42.4 13.8 42.4C13.4 42.4 13 42.4 12.6 42.4C12.6 42.4 12.6 42.4 12.6 42.5C12.6 42.5 12.7 42.6 12.6 42.6C12.6 42.6 12.5 42.6 12.5 42.5C12.4 42.5 12.5 42.4 12.5 42.4C12.2 42.4 11.8 42.4 11.5 42.4C11.2 42.4 10.9 42.4 10.7 42.4C10.5 42.4 10.3 42.4 10.1 42.4H10C9.90001 42.5 9.80001 42.5 9.70001 42.5C9.10001 42.5 8.50001 42.5 8.00001 42.5C7.60001 42.5 7.30001 42.5 6.90001 42.5C6.70001 42.5 6.50001 42.5 6.40001 42.5H6.30001C6.10001 42.4 5.90001 42.4 5.80001 42.6C5.80001 42.6 5.70001 42.7 5.70001 42.6C5.50001 42.6 5.30001 42.6 5.10001 42.6C5.00001 42.6 4.80001 42.6 4.70001 42.6C4.70001 42.6 4.60001 42.6 4.60001 42.5C4.50001 42.4 4.30001 42.4 4.10001 42.4C4.10001 42.5 4.20001 42.5 4.20001 42.5C4.20001 42.6 4.10001 42.5 4.00001 42.5C3.40001 42.5 2.70001 42.5 2.10001 42.5C1.90001 42.5 1.70001 42.5 1.40001 42.5C1.10001 42.5 0.900012 42.5 0.600012 42.4C0.500012 42.4 0.500012 42.4 0.500012 42.3C0.400012 42.2 0.300012 42 0.200012 41.9C0.200012 41.9 0.200012 41.8 0.200012 41.7C0.200012 39.9 0.200012 38 0.200012 36.2C0.200012 34.6 0.200012 32.9 0.200012 31.3C0.200012 30.9 0.200012 30.6 0.200012 30.2C0.200012 30 0.200012 29.8 0.200012 29.6C0.200012 29.5 0.200012 29.3 0.200012 29.2C0.200012 29 0.200012 28.9 0.200012 28.7V28.6C0.200012 28.3 0.200012 28 0.200012 27.7C0.200012 27.6 0.200012 27.4 0.200012 27.3V27.2C0.300012 27.1 0.300012 27.1 0.300012 27V26.9C0.300012 26.7 0.300012 26.4 0.200012 26.2C0.200012 26.1 0.200012 26 0.200012 25.9C0.200012 25.6 0.200012 25.4 0.200012 25.1V25C0.400012 24.8 0.500012 24.7 0.700012 24.5C0.800012 24.5 0.800012 24.4 0.900012 24.4C1.40001 24.4 1.90001 24.4 2.40001 24.4C4.00001 24.4 5.50001 24.4 7.10001 24.4C7.70001 24.4 8.30001 24.4 8.90001 24.4C9.30001 24.4 9.70001 24.4 10.1 24.4C10.4 24.4 10.7 24.4 11 24.4C11.3 24.4 11.5 24.4 11.8 24.4C12.2 24.4 12.6 24.4 13 24.4C13.6 24.4 14.2 24.4 14.9 24.4C15.1 24.4 15.1 24.4 15.1 24.6C15.1 24.8 15.1 25 15 25.2C15 25.4 14.9 25.7 14.9 25.9C14.9 26.1 14.8 26.4 14.8 26.6C14.7 26.9 14.7 27.1 14.6 27.4C14.5 27.8 14.4 28.2 14.3 28.6C14.2 29.2 14 29.7 13.8 30.2C13.6 30.8 13.3 31.3 12.9 31.8C12.7 32.1 12.4 32.5 12.2 32.8C11.8 33.3 11.4 33.7 10.9 34.2C10.7 34.4 10.4 34.7 10.2 34.9C10 35.1 9.70001 35.4 9.50001 35.6C9.30001 35.8 9.10001 36 8.80001 36.2C8.40001 36.5 8.10001 36.9 7.70001 37.3C7.60001 37.4 7.50001 37.4 7.50001 37.3C7.40001 37.2 7.30001 37.2 7.20001 37.3C7.00001 37.5 6.80001 37.8 6.70001 38C6.40001 38.4 6.20001 38.9 6.00001 39.3C5.80001 39.6 5.70001 40 5.70001 40.3C5.70001 40.6 5.70001 41 5.80001 41.3C5.90001 41.5 6.00001 41.6 6.20001 41.8C6.30001 41.8 6.30001 41.8 6.40001 41.7C6.60001 41.4 6.70001 41.1 6.90001 40.9C7.20001 40.3 7.50001 39.7 7.90001 39.1C7.70001 39 8.00001 38.7 8.20001 38.4C8.40001 38.1 8.70001 37.9 8.90001 37.6C9.20001 37.3 9.50001 37 9.80001 36.7C10 36.4 10.3 36.2 10.6 36C11.1 35.5 11.7 35.1 12.3 34.7C12.6 34.5 13 34.2 13.3 34C13.4 34 13.4 34 13.4 34.1C13.5 34.5 13.5 34.9 13.4 35.3C13.3 35.9 13.1 36.5 13 37.1C12.9 37.5 12.8 37.9 12.7 38.3C12.7 38.4 12.7 38.5 12.7 38.7C12.7 39 12.6 39.2 12.5 39.4C12.4 39.5 12.4 39.6 12.3 39.7C12.2 39.9 12.3 40 12.4 40.1C12.6 40.3 12.8 40.5 13 40.6C13.5 40.9 13.9 41.2 14.4 41.5C14.7 41.6 15 41.8 15.3 41.8C15.6 41.9 15.9 41.9 16.2 41.8C16.2 41.8 16.3 41.8 16.3 41.7C16.3 41.6 16.2 41.6 16.2 41.5C16 41.3 15.7 41.1 15.4 41C15.1 40.8 14.8 40.6 14.6 40.4C14.4 40.2 14.2 39.9 14.1 39.6C14 39.4 14 39.3 14 39.1C14 38.4 14.1 37.8 14.3 37.2C14.4 36.7 14.6 36.1 14.8 35.6C15 35.2 15.2 34.8 15.4 34.4C15.8 33.6 16.1 32.9 16.5 32.1C16.6 31.9 16.7 31.8 16.7 31.6L16.8 31.5V31.6C16.8 32.6 16.8 33.7 16.8 34.7C16.8 35.7 16.8 36.7 16.8 37.7C16.8 38 16.8 38.4 16.8 38.7C16.8 38.8 16.8 39 16.8 39.1C16.8 39.3 16.8 39.5 16.8 39.6C16.8 40 16.8 40.4 16.8 40.8C16.9 41.3 17 41.5 16.9 41.8ZM0.400012 40.4C0.300012 40.2 0.300012 40.3 0.400012 40.4C0.300012 40.3 0.200012 40.4 0.200012 40.4C0.200012 40.4 0.200012 40.4 0.400012 40.4C0.300012 40.4 0.300012 40.4 0.400012 40.4Z" fill="#E5D283"/>
<path d="M25.1 22.1C25.7 22.1 26.1 22.1 26.6 22.1H26.7C26.6 22.1 26.6 22.1 26.5 22.1C26.3 22.1 26 22.1 25.8 22.1C25.4 22.1 25.1 22.1 24.7 22.1C24.5 22.1 24.3 22.1 24 22.1C23.9 22.1 23.8 22.1 23.7 22C23.7 21.9 23.6 21.9 23.5 21.9C23.1 21.9 22.8 21.9 22.4 21.9C22.5 21.9 22.7 21.9 22.8 22C22.5 22.2 21.5 22.2 21.4 22C21.5 22 21.6 22 21.7 21.9C21.5 21.8 21.1 21.8 21 21.9L21.1 22C21.2 22.1 21.1 22.1 21.1 22.1C20.9 22.1 20.6 22.1 20.4 22.1C20.3 22.1 20.3 22 20.3 22C20.3 21.9 20.3 21.7 20.3 21.6C20.3 21.4 20.4 21.2 20.4 21C20.4 20.8 20.5 20.6 20.5 20.4C20.5 20.2 20.5 20 20.6 19.8C20.6 19.6 20.7 19.3 20.7 19.1C20.7 19 20.7 18.9 20.7 18.8C20.7 18.6 20.7 18.4 20.7 18.2C20.7 17.6 20.7 16.9 20.7 16.3C20.7 16 20.7 15.7 20.7 15.4C20.7 15.1 20.7 14.8 20.7 14.5C20.7 14.1 20.8 13.7 21 13.3C21.2 12.8 21.5 12.4 21.7 12C22 11.5 22.2 11 22.5 10.5C22.8 10 23 9.5 23.2 8.9C23.5 8.3 23.7 7.7 24 7.1C24.2 6.6 24.4 6.1 24.5 5.6C24.6 5.3 24.7 5 24.7 4.7C24.6 4.7 24.6 4.8 24.5 4.9C24.4 5.4 24.2 5.9 23.9 6.3C23.8 6.5 23.5 6.5 23.3 6.5C23.3 6.5 23.2 6.5 23.1 6.5C23.1 6.5 23 6.5 23 6.6V6.7C23 7.3 22.9 7.8 22.7 8.3C22.6 8.6 22.4 8.9 22.3 9.3C22 9.9 21.7 10.4 21.3 11C21.1 11.3 20.9 11.5 20.7 11.8C20.6 11.9 20.5 12.1 20.3 12.2C20 12.5 19.6 12.8 19 13C19 13 18.9 13 18.8 13C18.8 12.9 18.8 12.9 18.8 12.8C18.8 10.4 18.8 8 18.8 5.5C18.8 5.3 18.8 5.1 18.8 4.9C18.8 4.7 18.8 4.5 19 4.4C19.1 4.3 19.2 4.2 19.3 4.1C19.2 4 19.3 4 19.4 4C20 4 20.6 4 21.2 4C22.5 4 23.8 4 25.1 4C26.7 4 28.4 4 30 4C30.9 4 31.8 4 32.7 4C32.8 4 33 4 33.1 4.2C33.2 4.3 33.4 4.5 33.5 4.6C33.6 4.7 33.6 4.7 33.4 4.8C33.3 4.8 33.3 4.8 33.3 4.9C33.3 5.2 33.3 5.4 33.3 5.7C33.3 6 33.3 6.3 33.3 6.6C33.3 6.8 33.2 7.1 33.2 7.3C33.2 7.4 33.2 7.6 33.2 7.7C33.2 8.4 33.2 9.1 33.2 9.9C33.2 11.8 33.2 13.6 33.2 15.5C33.2 16.1 33.2 16.7 33.2 17.3C33.2 17.6 33.3 17.9 33.3 18.2C33.3 18.3 33.3 18.5 33.3 18.6C33.2 18.9 33.2 19.2 33.2 19.5C33.2 19.8 33.2 20.2 33.2 20.5C33.2 20.7 33.2 21 33.1 21.2C33.1 21.2 33.1 21.3 33.1 21.2C33 21.2 33 21.2 33 21.3C33 21.5 33 21.7 33 21.9C33 22 33 22 32.9 22C32.8 22 32.6 22 32.5 22C32.3 22 32.2 22 32 22C31.6 22 31.3 22 30.9 22C30.2 22 29.4 22 28.7 22C28.1 22 27.6 22 27 22C26.8 22 26.5 22 26.3 22C26 22 25.8 22 25.5 22C25.4 22 25.3 22 25.1 22.1Z" fill="#E5D283"/>
<path d="M31.6 39.8C31.6 40 31.6 40.2001 31.6 40.4001C31.6 40.6001 31.6 40.6 31.4 40.6C31.1 40.6 30.9 40.6 30.6 40.6C30.1 40.6 29.7 40.6 29.2 40.6C28.9 40.6 28.5 40.6 28.2 40.6C28.1 40.6 28 40.6 27.9 40.7001C27.8 40.8001 27.7 40.8001 27.7 40.7001C27.7 40.7001 27.7 40.6 27.8 40.5C27.6 40.5 27.4 40.5 27.3 40.5C26.3 40.5 25.4 40.5 24.4 40.5C24.2 40.5 24.1 40.5 23.9 40.6C24 40.6 24 40.7001 24.1 40.7001C24.6 40.7001 25.1 40.7001 25.5 40.7001H25.6C25.6 40.8001 25.6 40.8 25.5 40.8C25.3 40.8 25.2 40.9001 25 40.9001C24.5 40.9001 24 40.9001 23.5 40.9001C23.3 40.9001 23 40.9001 22.8 40.9001C22.7 40.9001 22.7 40.9 22.6 40.8C22.6 40.7 22.5 40.7001 22.4 40.7001C22.1 40.7001 21.8 40.7001 21.4 40.7001C21.5 40.7001 21.6 40.7 21.7 40.8H21.8C21.6 41 21.5 41 21.4 41C21.1 41 20.9 41 20.6 41C20.5 41 20.5 41.0001 20.4 40.9001C20.4 40.9001 20.5 40.9 20.6 40.8C20.5 40.8 20.4 40.8 20.4 40.8C20.3 40.8 20.3 40.9001 20.3 40.9001C20.3 41.0001 20.3 41 20.2 41C20 41 19.8 41.1 19.5 41.1C19.3 41.1 19 41.1 18.8 41.1C18.6 41.1 18.5 41.0001 18.4 40.9001C18.3 40.8001 18.2 40.6 18.1 40.5C18 40.5 18 40.4 18 40.3C18 36.7 18 33.1 18 29.6C18 29.3 18.1 29.1 18.2 28.9C18.5 27.9 18.9 27 19.2 26C19.4 25.2 19.7 24.5001 19.9 23.7001C19.9 23.6001 20 23.5 20 23.4C20 23.3 20.2 23.3 20.3 23.3C20.8 23.3 21.2 23.3 21.7 23.3C22 23.3 22.2 23.3 22.5 23.3C25.5 23.3 28.5 23.3 31.5 23.3C31.6 23.3 31.7 23.3 31.8 23.4C31.9 23.5 32 23.6001 32 23.7001C32.1 23.9001 32.2 24.1 32.1 24.3C32 24.4 32 24.6001 32.1 24.7001C32.1 24.8001 32.1 24.9 32.1 25C32.1 25.4 32.1 25.7 32.1 26.1C32.1 26.5001 32.1 26.8001 32.1 27.2001C32.1 27.5001 32.1 27.8 32.1 28.1C32.1 28.9001 32.1 29.7 32.1 30.5C32.1 31.4 32.1 32.3001 32.1 33.2001C32.1 33.5001 32.1 33.8 32.1 34.1C32.1 34.4001 32.1 34.7 32.1 35C32.1 35.2 32.1 35.3 32.1 35.5C32.1 35.9 32.1 36.3 32.2 36.6C32.2 36.8 32.2 36.9 32.2 37.1C32.2 37.3 32.2 37.5001 32.1 37.7001C32.1 37.8001 32.1 37.8001 32.1 37.9001C32.1 38.2001 32.1 38.6001 32.1 38.9001C32.1 39.2001 32.1 39.4001 32.1 39.7001C32.1 39.8001 32.1 39.8001 32.1 39.9001C31.7 39.9001 31.7 39.9 31.6 39.8Z" fill="#E5D283"/>
<path d="M5.39998 7.39998C5.49998 7.69998 5.69998 7.79998 5.89998 7.99998C6.09998 8.29998 6.29998 8.49998 6.49998 8.79998C6.69998 9.09998 6.89998 9.39998 7.19998 9.59998C7.49998 9.89998 7.69998 10.3 7.99998 10.6C8.29998 11 8.49998 11.4 8.89998 11.7C9.09998 12.2 9.49998 12.4 9.99998 12.5C10.4 12.6 10.7 12.7 11.1 12.8C11.5 12.9 11.8 13 12.1 13.2C12.5 13.4 12.8 13.6 13.1 13.9C13.3 14.1 13.6 14.3 13.8 14.5C14.1 14.8 14.5 15.1 14.8 15.4C15.2 15.8 15.6 16.3 16 16.8C16.2 17.1 16.4 17.5 16.5 17.9C16.5 18 16.5 18.2 16.5 18.4C16.5 18.8 16.5 19.1 16.4 19.5C16.3 19.8 16.1 20.1 16 20.3C15.9 20.6 15.7 20.8 15.6 21.1C15.4 21.4 15.3 21.7 15.3 22.1C15.2 22.4 15.2 22.7 15.1 23C15.1 23.2 15.1 23.4 15 23.5C15 23.6 15 23.6 14.9 23.6C14.4 23.6 14 23.6 13.5 23.6C12.8 23.6 12.1 23.6 11.4 23.6C10.9 23.6 10.4 23.6 9.89998 23.6H9.99998C10.3 23.6 10.6 23.6 10.8 23.6C10.8 23.6 11 23.6 10.9 23.7C10.9 23.7 10.8 23.7 10.7 23.7C10.5 23.7 10.3 23.7 9.99998 23.7C9.39998 23.7 8.79998 23.7 8.09998 23.7C7.99998 23.7 7.79998 23.7 7.69998 23.6C7.69998 23.6 7.59998 23.5 7.59998 23.6V23.7C7.59998 23.7 7.59998 23.7 7.59998 23.8C7.49998 23.9 7.49998 23.9 7.39998 23.9C7.39998 23.9 7.29998 23.9 7.29998 23.8C7.29998 23.6 7.09998 23.6 6.99998 23.6C6.49998 23.5 5.89998 23.6 5.39998 23.6C5.29998 23.6 5.19998 23.6 4.99998 23.6C5.09998 23.6 5.19998 23.7 5.19998 23.7C5.19998 23.7 5.29998 23.7 5.29998 23.8C5.29998 23.8 5.29998 23.8 5.19998 23.8C5.09998 23.8 5.09998 23.8 4.99998 23.8C4.39998 23.9 3.89998 23.9 3.29998 23.9C3.09998 23.9 2.99998 23.9 2.89998 23.7L2.79998 23.6C2.59998 23.5 2.59998 23.3 2.59998 23.1C2.59998 20.3 2.59998 17.6 2.59998 14.8C2.59998 12 2.59998 9.09998 2.59998 6.29998C2.59998 6.09998 2.59998 5.89998 2.79998 5.79998C2.99998 5.79998 3.09998 5.69998 3.19998 5.59998H3.29998C3.69998 5.59998 4.19998 5.59998 4.59998 5.59998C6.69998 5.59998 8.89998 5.59998 11 5.59998C11.2 5.59998 11.5 5.59998 11.7 5.59998C12.3 5.59998 12.9 5.59998 13.5 5.59998C14 5.59998 14.6 5.59998 15.1 5.59998C15.7 5.59998 16.3 5.59998 16.8 5.59998C16.9 5.59998 17 5.59998 17 5.69998C17.1 5.79998 17.3 5.99998 17.4 6.09998C17.5 6.19998 17.5 6.19998 17.5 6.29998C17.5 7.09998 17.5 7.89998 17.5 8.69998C17.5 9.79998 17.5 10.9 17.5 12C17.5 12.2 17.5 12.4 17.4 12.6C17.4 12.6 17.4 12.7 17.3 12.7C17.3 12.7 17.2 12.7 17.2 12.6C17.1 12.5 17.1 12.4 17.1 12.3C17 12 17 11.6 17 11.3C17 10.9 17.1 10.6 17.1 10.2C17.1 9.79998 17.2 9.49998 17 9.09998C16.9 8.89998 16.8 8.79998 16.6 8.69998C16.4 8.59998 16.2 8.49998 15.9 8.39998C15.4 8.29998 14.9 8.39998 14.5 8.89998C14.3 9.19998 14.1 9.59998 14 9.99998C13.9 10.4 13.9 10.8 14.1 11.2C14.2 11.4 14.3 11.6 14.5 11.8C14.6 11.9 14.8 12 14.9 12.2C15 12.3 15 12.3 14.9 12.4C14.9 12.4 14.9 12.4 14.8 12.4C14.6 12.4 14.3 12.4 14.1 12.4C13.5 12.4 12.9 12.3 12.4 12.1C11.9 11.9 11.4 11.7 10.9 11.5C10.4 11.3 9.79998 11 9.19998 10.6C8.79998 10.3 8.39998 10.1 7.99998 9.69998C7.59998 9.39998 7.19998 8.99998 6.99998 8.49998C6.99998 8.39998 6.89998 8.29998 6.79998 8.19998C6.79998 8.09998 6.69998 8.09998 6.69998 8.19998C6.49998 8.39998 6.49998 8.39998 6.29998 8.19998C6.09998 8.09998 5.89998 7.79998 5.59998 7.59998C5.59998 7.49998 5.49998 7.49998 5.39998 7.39998Z" fill="#E5D283"/>
<path d="M6.3 23.7C6.4 23.7 6.6 23.7 6.8 23.7C6.8 23.7 6.9 23.7 6.9 23.8L6.8 23.9C6.5 23.9 6.3 23.9 6 23.9C5.9 23.9 5.8 23.9 5.6 23.8C5.6 23.8 5.5 23.8 5.5 23.7C5.5 23.7 5.5 23.7 5.6 23.6C5.7 23.5 5.9 23.5 6 23.5C6.1 23.6 6.2 23.7 6.3 23.7Z" fill="#E5D283"/>
<path d="M22.5 40.9001C22.5 41.0001 22.5 41.0001 22.5 40.9001C22.4 41.0001 22.3 41 22.2 41C22.2 41 22.1 41.0001 22.1 40.9001C22.1 40.9001 22.1 40.8 22.2 40.8C22.3 40.9 22.4 40.9001 22.5 40.9001Z" fill="#E5D283"/>
<path d="M23.4 22.2999H23.3C23.2 22.1999 23.2 22.2 23.3 22.2C23.4 22.2 23.4 22.2 23.5 22.2L23.6 22.2999C23.6 22.2999 23.5 22.2999 23.4 22.2999Z" fill="#E5D283"/>
<path d="M13.3 23.7C13.3 23.8 13.2 23.8 13.2 23.8C13.1 23.8 13.1 23.8 13.1 23.7C13.1 23.6 13.2 23.6 13.2 23.6C13.2 23.6 13.2 23.7 13.3 23.7Z" fill="#E5D283"/>
</g>
<defs>
<clipPath id="clip0_0_88">
<rect width="33.6" height="38.7" fill="white" transform="translate(0 4)"/>
</clipPath>
</defs>
</svg>
